<?xml version="1.0" encoding="UTF-8" standalone="no"?>
<!DOCTYPE svg PUBLIC "-//W3C//DTD SVG 1.1//EN"
 "http://www.w3.org/Graphics/SVG/1.1/DTD/svg11.dtd">
<!-- Generated by graphviz version 2.43.0 (0)
 -->
<!-- Title: Autómato que aceita sequencias binárias que têm um número de 0&#39;s múltiplo de 3 Pages: 1 -->
<svg width="389pt" height="116pt"
 viewBox="0.00 0.00 389.40 116.20" xmlns="http://www.w3.org/2000/svg" xmlns:xlink="http://www.w3.org/1999/xlink">
<g id="graph0" class="graph" transform="scale(1 1) rotate(0) translate(4 112.2)">
<title>Autómato que aceita sequencias binárias que têm um número de 0&#39;s múltiplo de 3</title>
<polygon fill="white" stroke="transparent" points="-4,4 -4,-112.2 385.4,-112.2 385.4,4 -4,4"/>
<!-- Start -->
<g id="node1" class="node">
<title>Start</title>
</g>
<!-- A -->
<g id="node4" class="node">
<title>A</title>
<ellipse fill="none" stroke="black" cx="109" cy="-22.2" rx="18" ry="18"/>
<text text-anchor="middle" x="109" y="-18.5" font-family="Times,serif" font-size="14.00">A</text>
</g>
<!-- Start&#45;&gt;A -->
<g id="edge1" class="edge">
<title>Start&#45;&gt;A</title>
<path fill="none" stroke="black" d="M54.19,-22.2C62.65,-22.2 72.05,-22.2 80.6,-22.2"/>
<polygon fill="black" stroke="black" points="90.83,-22.2 80.83,-26.7 85.83,-22.2 80.83,-22.2 80.83,-22.2 80.83,-22.2 85.83,-22.2 80.83,-17.7 90.83,-22.2 90.83,-22.2"/>
</g>
<!-- B -->
<g id="node2" class="node">
<title>B</title>
<ellipse fill="none" stroke="black" cx="191" cy="-22.2" rx="18" ry="18"/>
<text text-anchor="middle" x="191" y="-18.5" font-family="Times,serif" font-size="14.00">B</text>
</g>
<!-- B&#45;&gt;B -->
<g id="edge4" class="edge">
<title>B&#45;&gt;B</title>
<path fill="none" stroke="black" d="M183.97,-38.86C182.41,-48.82 184.75,-58.2 191,-58.2 195,-58.2 197.4,-54.35 198.2,-48.97"/>
<polygon fill="black" stroke="black" points="198.03,-38.86 202.7,-48.78 198.12,-43.86 198.2,-48.86 198.2,-48.86 198.2,-48.86 198.12,-43.86 193.7,-48.94 198.03,-38.86 198.03,-38.86"/>
<text text-anchor="middle" x="191" y="-62" font-family="Times,serif" font-size="14.00">1</text>
</g>
<!-- C -->
<g id="node3" class="node">
<title>C</title>
<ellipse fill="none" stroke="black" cx="273" cy="-57.2" rx="18" ry="18"/>
<text text-anchor="middle" x="273" y="-53.5" font-family="Times,serif" font-size="14.00">C</text>
</g>
<!-- B&#45;&gt;C -->
<g id="edge5" class="edge">
<title>B&#45;&gt;C</title>
<path fill="none" stroke="black" d="M207.81,-29.11C218.98,-34 234.19,-40.66 247.01,-46.26"/>
<polygon fill="black" stroke="black" points="256.23,-50.3 245.26,-50.41 251.65,-48.29 247.07,-46.29 247.07,-46.29 247.07,-46.29 251.65,-48.29 248.87,-42.17 256.23,-50.3 256.23,-50.3"/>
<text text-anchor="middle" x="232" y="-45" font-family="Times,serif" font-size="14.00">0</text>
</g>
<!-- C&#45;&gt;C -->
<g id="edge6" class="edge">
<title>C&#45;&gt;C</title>
<path fill="none" stroke="black" d="M265.97,-73.86C264.41,-83.82 266.75,-93.2 273,-93.2 277,-93.2 279.4,-89.35 280.2,-83.97"/>
<polygon fill="black" stroke="black" points="280.03,-73.86 284.7,-83.78 280.12,-78.86 280.2,-83.86 280.2,-83.86 280.2,-83.86 280.12,-78.86 275.7,-83.94 280.03,-73.86 280.03,-73.86"/>
<text text-anchor="middle" x="273" y="-97" font-family="Times,serif" font-size="14.00">1</text>
</g>
<!-- D -->
<g id="node5" class="node">
<title>D</title>
<ellipse fill="none" stroke="black" cx="359.2" cy="-22.2" rx="18.36" ry="18.36"/>
<ellipse fill="none" stroke="black" cx="359.2" cy="-22.2" rx="22.4" ry="22.4"/>
<text text-anchor="middle" x="359.2" y="-18.5" font-family="Times,serif" font-size="14.00">D</text>
</g>
<!-- C&#45;&gt;D -->
<g id="edge7" class="edge">
<title>C&#45;&gt;D</title>
<path fill="none" stroke="black" d="M289.84,-50.62C300.77,-46.07 315.64,-39.89 328.71,-34.45"/>
<polygon fill="black" stroke="black" points="338.27,-30.48 330.76,-38.48 333.65,-32.4 329.04,-34.32 329.04,-34.32 329.04,-34.32 333.65,-32.4 327.31,-30.17 338.27,-30.48 338.27,-30.48"/>
<text text-anchor="middle" x="314" y="-45" font-family="Times,serif" font-size="14.00">0</text>
</g>
<!-- A&#45;&gt;B -->
<g id="edge3" class="edge">
<title>A&#45;&gt;B</title>
<path fill="none" stroke="black" d="M127.36,-22.2C137.7,-22.2 151.06,-22.2 162.78,-22.2"/>
<polygon fill="black" stroke="black" points="172.95,-22.2 162.95,-26.7 167.95,-22.2 162.95,-22.2 162.95,-22.2 162.95,-22.2 167.95,-22.2 162.95,-17.7 172.95,-22.2 172.95,-22.2"/>
<text text-anchor="middle" x="150" y="-26" font-family="Times,serif" font-size="14.00">0</text>
</g>
<!-- A&#45;&gt;A -->
<g id="edge2" class="edge">
<title>A&#45;&gt;A</title>
<path fill="none" stroke="black" d="M102.62,-39.24C101.32,-49.06 103.45,-58.2 109,-58.2 112.47,-58.2 114.6,-54.63 115.4,-49.55"/>
<polygon fill="black" stroke="black" points="115.38,-39.24 119.9,-49.23 115.39,-44.24 115.4,-49.24 115.4,-49.24 115.4,-49.24 115.39,-44.24 110.9,-49.24 115.38,-39.24 115.38,-39.24"/>
<text text-anchor="middle" x="109" y="-62" font-family="Times,serif" font-size="14.00">1</text>
</g>
<!-- D&#45;&gt;B -->
<g id="edge8" class="edge">
<title>D&#45;&gt;B</title>
<path fill="none" stroke="black" d="M337.06,-19.43C323.84,-17.84 306.46,-16 291,-15.2 275.02,-14.37 270.98,-14.31 255,-15.2 243.18,-15.85 230.16,-17.19 219.04,-18.53"/>
<polygon fill="black" stroke="black" points="209.07,-19.78 218.43,-14.07 214.03,-19.16 218.99,-18.54 218.99,-18.54 218.99,-18.54 214.03,-19.16 219.55,-23 209.07,-19.78 209.07,-19.78"/>
<text text-anchor="middle" x="273" y="-19" font-family="Times,serif" font-size="14.00">0</text>
</g>
<!-- D&#45;&gt;D -->
<g id="edge9" class="edge">
<title>D&#45;&gt;D</title>
<path fill="none" stroke="black" d="M351.15,-43.29C350.16,-53.44 352.84,-62.4 359.2,-62.4 363.27,-62.4 365.84,-58.72 366.89,-53.41"/>
<polygon fill="black" stroke="black" points="367.25,-43.29 371.4,-53.44 367.07,-48.29 366.9,-53.29 366.9,-53.29 366.9,-53.29 367.07,-48.29 362.4,-53.13 367.25,-43.29 367.25,-43.29"/>
<text text-anchor="middle" x="359.2" y="-66.2" font-family="Times,serif" font-size="14.00">1</text>
</g>
</g>
</svg>
