<?xml version="1.0" encoding="UTF-8" standalone="no"?>
<!DOCTYPE svg PUBLIC "-//W3C//DTD SVG 1.1//EN"
 "http://www.w3.org/Graphics/SVG/1.1/DTD/svg11.dtd">
<!-- Generated by graphviz version 2.43.0 (0)
 -->
<!-- Title: Autómato finito determinístico que aceita sequências binárias que tenham pelo menos um 0 Pages: 1 -->
<svg width="225pt" height="118pt"
 viewBox="0.00 0.00 225.00 118.00" xmlns="http://www.w3.org/2000/svg" xmlns:xlink="http://www.w3.org/1999/xlink">
<g id="graph0" class="graph" transform="scale(1 1) rotate(0) translate(4 114)">
<title>Autómato finito determinístico que aceita sequências binárias que tenham pelo menos um 0</title>
<polygon fill="white" stroke="transparent" points="-4,4 -4,-114 221,-114 221,4 -4,4"/>
<!-- Start -->
<g id="node1" class="node">
<title>Start</title>
</g>
<!-- A -->
<g id="node2" class="node">
<title>A</title>
<ellipse fill="none" stroke="black" cx="109" cy="-22" rx="18" ry="18"/>
<text text-anchor="middle" x="109" y="-18.3" font-family="Times,serif" font-size="14.00">A</text>
</g>
<!-- Start&#45;&gt;A -->
<g id="edge1" class="edge">
<title>Start&#45;&gt;A</title>
<path fill="none" stroke="black" d="M54.19,-22C62.65,-22 72.05,-22 80.6,-22"/>
<polygon fill="black" stroke="black" points="90.83,-22 80.83,-26.5 85.83,-22 80.83,-22 80.83,-22 80.83,-22 85.83,-22 80.83,-17.5 90.83,-22 90.83,-22"/>
</g>
<!-- A&#45;&gt;A -->
<g id="edge3" class="edge">
<title>A&#45;&gt;A</title>
<path fill="none" stroke="black" d="M102.62,-39.04C101.32,-48.86 103.45,-58 109,-58 112.47,-58 114.6,-54.43 115.4,-49.35"/>
<polygon fill="black" stroke="black" points="115.38,-39.04 119.9,-49.03 115.39,-44.04 115.4,-49.04 115.4,-49.04 115.4,-49.04 115.39,-44.04 110.9,-49.05 115.38,-39.04 115.38,-39.04"/>
<text text-anchor="middle" x="109" y="-61.8" font-family="Times,serif" font-size="14.00">1</text>
</g>
<!-- B -->
<g id="node3" class="node">
<title>B</title>
<ellipse fill="none" stroke="black" cx="195" cy="-22" rx="18" ry="18"/>
<ellipse fill="none" stroke="black" cx="195" cy="-22" rx="22" ry="22"/>
<text text-anchor="middle" x="195" y="-18.3" font-family="Times,serif" font-size="14.00">B</text>
</g>
<!-- A&#45;&gt;B -->
<g id="edge2" class="edge">
<title>A&#45;&gt;B</title>
<path fill="none" stroke="black" d="M127.4,-22C137.59,-22 150.75,-22 162.68,-22"/>
<polygon fill="black" stroke="black" points="172.74,-22 162.74,-26.5 167.74,-22 162.74,-22 162.74,-22 162.74,-22 167.74,-22 162.74,-17.5 172.74,-22 172.74,-22"/>
<text text-anchor="middle" x="150" y="-25.8" font-family="Times,serif" font-size="14.00">0</text>
</g>
<!-- B&#45;&gt;B -->
<g id="edge4" class="edge">
<title>B&#45;&gt;B</title>
<path fill="none" stroke="black" d="M190.94,-43.81C190.55,-53.56 191.91,-62 195,-62 196.93,-62 198.19,-58.7 198.76,-53.85"/>
<polygon fill="black" stroke="black" points="199.06,-43.81 203.26,-53.94 198.91,-48.8 198.76,-53.8 198.76,-53.8 198.76,-53.8 198.91,-48.8 194.26,-53.67 199.06,-43.81 199.06,-43.81"/>
<text text-anchor="middle" x="195" y="-65.8" font-family="Times,serif" font-size="14.00">0</text>
</g>
<!-- B&#45;&gt;B -->
<g id="edge5" class="edge">
<title>B&#45;&gt;B</title>
<path fill="none" stroke="black" d="M188.06,-43.11C185,-61.1 187.31,-80 195,-80 201.25,-80 203.95,-67.52 203.1,-53.2"/>
<polygon fill="black" stroke="black" points="201.94,-43.11 207.55,-52.54 202.51,-48.08 203.08,-53.05 203.08,-53.05 203.08,-53.05 202.51,-48.08 198.61,-53.56 201.94,-43.11 201.94,-43.11"/>
<text text-anchor="middle" x="195" y="-83.8" font-family="Times,serif" font-size="14.00">1</text>
</g>
</g>
</svg>
