<?xml version="1.0" encoding="UTF-8" standalone="no"?>
<!DOCTYPE svg PUBLIC "-//W3C//DTD SVG 1.1//EN"
 "http://www.w3.org/Graphics/SVG/1.1/DTD/svg11.dtd">
<!-- Generated by graphviz version 2.47.1 (20210417.1919)
 -->
<!-- Title: automato que aceita sequencias binárias que têm um número de 0&#39;s múltiplo de 3 Pages: 1 -->
<svg width="301pt" height="116pt"
 viewBox="0.00 0.00 301.00 116.00" xmlns="http://www.w3.org/2000/svg" xmlns:xlink="http://www.w3.org/1999/xlink">
<g id="graph0" class="graph" transform="scale(1 1) rotate(0) translate(4 112)">
<title>automato que aceita sequencias binárias que têm um número de 0&#39;s múltiplo de 3</title>
<polygon fill="white" stroke="transparent" points="-4,4 -4,-112 297,-112 297,4 -4,4"/>
<!-- Start -->
<g id="node1" class="node">
<title>Start</title>
</g>
<!-- A -->
<g id="node3" class="node">
<title>A</title>
<ellipse fill="none" stroke="black" cx="109" cy="-22" rx="18" ry="18"/>
<text text-anchor="middle" x="109" y="-18.3" font-family="Times New Roman,serif" font-size="14.00">A</text>
</g>
<!-- Start&#45;&gt;A -->
<g id="edge1" class="edge">
<title>Start&#45;&gt;A</title>
<path fill="none" stroke="black" d="M54.19,-22C62.65,-22 72.05,-22 80.6,-22"/>
<polygon fill="black" stroke="black" points="90.83,-22 80.83,-26.5 85.83,-22 80.83,-22 80.83,-22 80.83,-22 85.83,-22 80.83,-17.5 90.83,-22 90.83,-22"/>
</g>
<!-- B -->
<g id="node2" class="node">
<title>B</title>
<ellipse fill="none" stroke="black" cx="188" cy="-57" rx="18" ry="18"/>
<text text-anchor="middle" x="188" y="-53.3" font-family="Times New Roman,serif" font-size="14.00">B</text>
</g>
<!-- B&#45;&gt;B -->
<g id="edge4" class="edge">
<title>B&#45;&gt;B</title>
<path fill="none" stroke="black" d="M181.27,-74.04C179.89,-83.86 182.14,-93 188,-93 191.66,-93 193.92,-89.43 194.75,-84.35"/>
<polygon fill="black" stroke="black" points="194.73,-74.04 199.25,-84.03 194.74,-79.04 194.75,-84.04 194.75,-84.04 194.75,-84.04 194.74,-79.04 190.25,-84.05 194.73,-74.04 194.73,-74.04"/>
<text text-anchor="middle" x="188" y="-96.8" font-family="Times New Roman,serif" font-size="14.00">1</text>
</g>
<!-- C -->
<g id="node4" class="node">
<title>C</title>
<ellipse fill="none" stroke="black" cx="271" cy="-22" rx="18" ry="18"/>
<ellipse fill="none" stroke="black" cx="271" cy="-22" rx="22" ry="22"/>
<text text-anchor="middle" x="271" y="-18.3" font-family="Times New Roman,serif" font-size="14.00">C</text>
</g>
<!-- B&#45;&gt;C -->
<g id="edge5" class="edge">
<title>B&#45;&gt;C</title>
<path fill="none" stroke="black" d="M205,-50.09C215.33,-45.62 229.07,-39.68 241.26,-34.42"/>
<polygon fill="black" stroke="black" points="250.6,-30.38 243.21,-38.48 246.01,-32.37 241.42,-34.35 241.42,-34.35 241.42,-34.35 246.01,-32.37 239.64,-30.22 250.6,-30.38 250.6,-30.38"/>
<text text-anchor="middle" x="227.5" y="-44.8" font-family="Times New Roman,serif" font-size="14.00">0</text>
</g>
<!-- A&#45;&gt;B -->
<g id="edge3" class="edge">
<title>A&#45;&gt;B</title>
<path fill="none" stroke="black" d="M125.58,-29.08C136.12,-33.87 150.27,-40.3 162.33,-45.78"/>
<polygon fill="black" stroke="black" points="171.44,-49.93 160.48,-49.89 166.89,-47.86 162.34,-45.79 162.34,-45.79 162.34,-45.79 166.89,-47.86 164.2,-41.69 171.44,-49.93 171.44,-49.93"/>
<text text-anchor="middle" x="148.5" y="-43.8" font-family="Times New Roman,serif" font-size="14.00">0</text>
</g>
<!-- A&#45;&gt;A -->
<g id="edge2" class="edge">
<title>A&#45;&gt;A</title>
<path fill="none" stroke="black" d="M102.62,-39.04C101.32,-48.86 103.45,-58 109,-58 112.47,-58 114.6,-54.43 115.4,-49.35"/>
<polygon fill="black" stroke="black" points="115.38,-39.04 119.9,-49.03 115.39,-44.04 115.4,-49.04 115.4,-49.04 115.4,-49.04 115.39,-44.04 110.9,-49.05 115.38,-39.04 115.38,-39.04"/>
<text text-anchor="middle" x="109" y="-61.8" font-family="Times New Roman,serif" font-size="14.00">1</text>
</g>
<!-- C&#45;&gt;A -->
<g id="edge7" class="edge">
<title>C&#45;&gt;A</title>
<path fill="none" stroke="black" d="M249.01,-19.12C236.54,-17.56 220.4,-15.79 206,-15 190.02,-14.13 185.97,-14.07 170,-15 159.2,-15.63 147.36,-16.89 137.07,-18.17"/>
<polygon fill="black" stroke="black" points="127.02,-19.48 136.35,-13.72 131.98,-18.83 136.94,-18.18 136.94,-18.18 136.94,-18.18 131.98,-18.83 137.52,-22.64 127.02,-19.48 127.02,-19.48"/>
<text text-anchor="middle" x="188" y="-18.8" font-family="Times New Roman,serif" font-size="14.00">0</text>
</g>
<!-- C&#45;&gt;C -->
<g id="edge6" class="edge">
<title>C&#45;&gt;C</title>
<path fill="none" stroke="black" d="M263.32,-42.99C262.37,-53.09 264.93,-62 271,-62 274.89,-62 277.34,-58.34 278.35,-53.06"/>
<polygon fill="black" stroke="black" points="278.68,-42.99 282.85,-53.14 278.52,-47.99 278.35,-52.99 278.35,-52.99 278.35,-52.99 278.52,-47.99 273.85,-52.83 278.68,-42.99 278.68,-42.99"/>
<text text-anchor="middle" x="271" y="-65.8" font-family="Times New Roman,serif" font-size="14.00">1</text>
</g>
</g>
</svg>
