<?xml version="1.0" encoding="UTF-8" standalone="no"?>
<!DOCTYPE svg PUBLIC "-//W3C//DTD SVG 1.1//EN"
 "http://www.w3.org/Graphics/SVG/1.1/DTD/svg11.dtd">
<!-- Generated by graphviz version 2.47.1 (20210417.1919)
 -->
<!-- Title: Autómato finito determinístico que aceita sequências binárias que terminem em 0 Pages: 1 -->
<svg width="222pt" height="85pt"
 viewBox="0.00 0.00 222.00 85.00" xmlns="http://www.w3.org/2000/svg" xmlns:xlink="http://www.w3.org/1999/xlink">
<g id="graph0" class="graph" transform="scale(1 1) rotate(0) translate(4 81)">
<title>Autómato finito determinístico que aceita sequências binárias que terminem em 0</title>
<polygon fill="white" stroke="transparent" points="-4,4 -4,-81 218,-81 218,4 -4,4"/>
<!-- Start -->
<g id="node1" class="node">
<title>Start</title>
</g>
<!-- A -->
<g id="node2" class="node">
<title>A</title>
<ellipse fill="none" stroke="black" cx="109" cy="-22" rx="18" ry="18"/>
<text text-anchor="middle" x="109" y="-18.3" font-family="Times New Roman,serif" font-size="14.00">A</text>
</g>
<!-- Start&#45;&gt;A -->
<g id="edge1" class="edge">
<title>Start&#45;&gt;A</title>
<path fill="none" stroke="black" d="M54.19,-22C62.65,-22 72.05,-22 80.6,-22"/>
<polygon fill="black" stroke="black" points="90.83,-22 80.83,-26.5 85.83,-22 80.83,-22 80.83,-22 80.83,-22 85.83,-22 80.83,-17.5 90.83,-22 90.83,-22"/>
</g>
<!-- A&#45;&gt;A -->
<g id="edge3" class="edge">
<title>A&#45;&gt;A</title>
<path fill="none" stroke="black" d="M102.62,-39.04C101.32,-48.86 103.45,-58 109,-58 112.47,-58 114.6,-54.43 115.4,-49.35"/>
<polygon fill="black" stroke="black" points="115.38,-39.04 119.9,-49.03 115.39,-44.04 115.4,-49.04 115.4,-49.04 115.4,-49.04 115.39,-44.04 110.9,-49.05 115.38,-39.04 115.38,-39.04"/>
<text text-anchor="middle" x="109" y="-61.8" font-family="Times New Roman,serif" font-size="14.00">1</text>
</g>
<!-- B -->
<g id="node3" class="node">
<title>B</title>
<ellipse fill="none" stroke="black" cx="192" cy="-22" rx="18" ry="18"/>
<ellipse fill="none" stroke="black" cx="192" cy="-22" rx="22" ry="22"/>
<text text-anchor="middle" x="192" y="-18.3" font-family="Times New Roman,serif" font-size="14.00">B</text>
</g>
<!-- A&#45;&gt;B -->
<g id="edge2" class="edge">
<title>A&#45;&gt;B</title>
<path fill="none" stroke="black" d="M127.18,-22C136.61,-22 148.6,-22 159.64,-22"/>
<polygon fill="black" stroke="black" points="169.81,-22 159.81,-26.5 164.81,-22 159.81,-22 159.81,-22 159.81,-22 164.81,-22 159.81,-17.5 169.81,-22 169.81,-22"/>
<text text-anchor="middle" x="148.5" y="-25.8" font-family="Times New Roman,serif" font-size="14.00">0</text>
</g>
<!-- B&#45;&gt;A -->
<g id="edge5" class="edge">
<title>B&#45;&gt;A</title>
<path fill="none" stroke="black" d="M173.93,-9.2C165.43,-4.33 154.88,-0.49 145,-3 141.04,-4.01 137.05,-5.56 133.24,-7.35"/>
<polygon fill="black" stroke="black" points="124.31,-12.13 131,-3.45 128.72,-9.77 133.13,-7.41 133.13,-7.41 133.13,-7.41 128.72,-9.77 135.25,-11.38 124.31,-12.13 124.31,-12.13"/>
<text text-anchor="middle" x="148.5" y="-6.8" font-family="Times New Roman,serif" font-size="14.00">1</text>
</g>
<!-- B&#45;&gt;B -->
<g id="edge4" class="edge">
<title>B&#45;&gt;B</title>
<path fill="none" stroke="black" d="M184.32,-42.99C183.37,-53.09 185.93,-62 192,-62 195.89,-62 198.34,-58.34 199.35,-53.06"/>
<polygon fill="black" stroke="black" points="199.68,-42.99 203.85,-53.14 199.52,-47.99 199.35,-52.99 199.35,-52.99 199.35,-52.99 199.52,-47.99 194.85,-52.83 199.68,-42.99 199.68,-42.99"/>
<text text-anchor="middle" x="192" y="-65.8" font-family="Times New Roman,serif" font-size="14.00">0</text>
</g>
</g>
</svg>
