<?xml version="1.0" encoding="UTF-8" standalone="no"?>
<!DOCTYPE svg PUBLIC "-//W3C//DTD SVG 1.1//EN"
 "http://www.w3.org/Graphics/SVG/1.1/DTD/svg11.dtd">
<!-- Generated by graphviz version 2.47.1 (20210417.1919)
 -->
<!-- Title: Autómato que aceita sequencias binárias que têm um número de 0&#39;s múltiplo de 3 Pages: 1 -->
<svg width="380pt" height="116pt"
 viewBox="0.00 0.00 380.00 116.00" xmlns="http://www.w3.org/2000/svg" xmlns:xlink="http://www.w3.org/1999/xlink">
<g id="graph0" class="graph" transform="scale(1 1) rotate(0) translate(4 112)">
<title>Autómato que aceita sequencias binárias que têm um número de 0&#39;s múltiplo de 3</title>
<polygon fill="white" stroke="transparent" points="-4,4 -4,-112 376,-112 376,4 -4,4"/>
<!-- Start -->
<g id="node1" class="node">
<title>Start</title>
</g>
<!-- A -->
<g id="node4" class="node">
<title>A</title>
<ellipse fill="none" stroke="black" cx="109" cy="-22" rx="18" ry="18"/>
<text text-anchor="middle" x="109" y="-18.3" font-family="Times New Roman,serif" font-size="14.00">A</text>
</g>
<!-- Start&#45;&gt;A -->
<g id="edge1" class="edge">
<title>Start&#45;&gt;A</title>
<path fill="none" stroke="black" d="M54.19,-22C62.65,-22 72.05,-22 80.6,-22"/>
<polygon fill="black" stroke="black" points="90.83,-22 80.83,-26.5 85.83,-22 80.83,-22 80.83,-22 80.83,-22 85.83,-22 80.83,-17.5 90.83,-22 90.83,-22"/>
</g>
<!-- B -->
<g id="node2" class="node">
<title>B</title>
<ellipse fill="none" stroke="black" cx="188" cy="-22" rx="18" ry="18"/>
<text text-anchor="middle" x="188" y="-18.3" font-family="Times New Roman,serif" font-size="14.00">B</text>
</g>
<!-- B&#45;&gt;B -->
<g id="edge4" class="edge">
<title>B&#45;&gt;B</title>
<path fill="none" stroke="black" d="M181.27,-39.04C179.89,-48.86 182.14,-58 188,-58 191.66,-58 193.92,-54.43 194.75,-49.35"/>
<polygon fill="black" stroke="black" points="194.73,-39.04 199.25,-49.03 194.74,-44.04 194.75,-49.04 194.75,-49.04 194.75,-49.04 194.74,-44.04 190.25,-49.05 194.73,-39.04 194.73,-39.04"/>
<text text-anchor="middle" x="188" y="-61.8" font-family="Times New Roman,serif" font-size="14.00">1</text>
</g>
<!-- C -->
<g id="node3" class="node">
<title>C</title>
<ellipse fill="none" stroke="black" cx="267" cy="-57" rx="18" ry="18"/>
<text text-anchor="middle" x="267" y="-53.3" font-family="Times New Roman,serif" font-size="14.00">C</text>
</g>
<!-- B&#45;&gt;C -->
<g id="edge5" class="edge">
<title>B&#45;&gt;C</title>
<path fill="none" stroke="black" d="M204.58,-29.08C215.12,-33.87 229.27,-40.3 241.33,-45.78"/>
<polygon fill="black" stroke="black" points="250.44,-49.93 239.48,-49.89 245.89,-47.86 241.34,-45.79 241.34,-45.79 241.34,-45.79 245.89,-47.86 243.2,-41.69 250.44,-49.93 250.44,-49.93"/>
<text text-anchor="middle" x="227.5" y="-43.8" font-family="Times New Roman,serif" font-size="14.00">0</text>
</g>
<!-- C&#45;&gt;C -->
<g id="edge6" class="edge">
<title>C&#45;&gt;C</title>
<path fill="none" stroke="black" d="M260.27,-74.04C258.89,-83.86 261.14,-93 267,-93 270.66,-93 272.92,-89.43 273.75,-84.35"/>
<polygon fill="black" stroke="black" points="273.73,-74.04 278.25,-84.03 273.74,-79.04 273.75,-84.04 273.75,-84.04 273.75,-84.04 273.74,-79.04 269.25,-84.05 273.73,-74.04 273.73,-74.04"/>
<text text-anchor="middle" x="267" y="-96.8" font-family="Times New Roman,serif" font-size="14.00">1</text>
</g>
<!-- D -->
<g id="node5" class="node">
<title>D</title>
<ellipse fill="none" stroke="black" cx="350" cy="-22" rx="18" ry="18"/>
<ellipse fill="none" stroke="black" cx="350" cy="-22" rx="22" ry="22"/>
<text text-anchor="middle" x="350" y="-18.3" font-family="Times New Roman,serif" font-size="14.00">D</text>
</g>
<!-- C&#45;&gt;D -->
<g id="edge7" class="edge">
<title>C&#45;&gt;D</title>
<path fill="none" stroke="black" d="M284,-50.09C294.33,-45.62 308.07,-39.68 320.26,-34.42"/>
<polygon fill="black" stroke="black" points="329.6,-30.38 322.21,-38.48 325.01,-32.37 320.42,-34.35 320.42,-34.35 320.42,-34.35 325.01,-32.37 318.64,-30.22 329.6,-30.38 329.6,-30.38"/>
<text text-anchor="middle" x="306.5" y="-44.8" font-family="Times New Roman,serif" font-size="14.00">0</text>
</g>
<!-- A&#45;&gt;B -->
<g id="edge3" class="edge">
<title>A&#45;&gt;B</title>
<path fill="none" stroke="black" d="M127.09,-22C136.66,-22 148.82,-22 159.68,-22"/>
<polygon fill="black" stroke="black" points="169.96,-22 159.96,-26.5 164.96,-22 159.96,-22 159.96,-22 159.96,-22 164.96,-22 159.96,-17.5 169.96,-22 169.96,-22"/>
<text text-anchor="middle" x="148.5" y="-25.8" font-family="Times New Roman,serif" font-size="14.00">0</text>
</g>
<!-- A&#45;&gt;A -->
<g id="edge2" class="edge">
<title>A&#45;&gt;A</title>
<path fill="none" stroke="black" d="M102.62,-39.04C101.32,-48.86 103.45,-58 109,-58 112.47,-58 114.6,-54.43 115.4,-49.35"/>
<polygon fill="black" stroke="black" points="115.38,-39.04 119.9,-49.03 115.39,-44.04 115.4,-49.04 115.4,-49.04 115.4,-49.04 115.39,-44.04 110.9,-49.05 115.38,-39.04 115.38,-39.04"/>
<text text-anchor="middle" x="109" y="-61.8" font-family="Times New Roman,serif" font-size="14.00">1</text>
</g>
<!-- D&#45;&gt;B -->
<g id="edge8" class="edge">
<title>D&#45;&gt;B</title>
<path fill="none" stroke="black" d="M328.01,-19.12C315.54,-17.56 299.4,-15.79 285,-15 269.02,-14.13 264.97,-14.07 249,-15 238.2,-15.63 226.36,-16.89 216.07,-18.17"/>
<polygon fill="black" stroke="black" points="206.02,-19.48 215.35,-13.72 210.98,-18.83 215.94,-18.18 215.94,-18.18 215.94,-18.18 210.98,-18.83 216.52,-22.64 206.02,-19.48 206.02,-19.48"/>
<text text-anchor="middle" x="267" y="-18.8" font-family="Times New Roman,serif" font-size="14.00">0</text>
</g>
<!-- D&#45;&gt;D -->
<g id="edge9" class="edge">
<title>D&#45;&gt;D</title>
<path fill="none" stroke="black" d="M342.32,-42.99C341.37,-53.09 343.93,-62 350,-62 353.89,-62 356.34,-58.34 357.35,-53.06"/>
<polygon fill="black" stroke="black" points="357.68,-42.99 361.85,-53.14 357.52,-47.99 357.35,-52.99 357.35,-52.99 357.35,-52.99 357.52,-47.99 352.85,-52.83 357.68,-42.99 357.68,-42.99"/>
<text text-anchor="middle" x="350" y="-65.8" font-family="Times New Roman,serif" font-size="14.00">1</text>
</g>
</g>
</svg>
